<svg width="46" height="49" viewBox="0 0 46 49" fill="none" xmlns="http://www.w3.org/2000/svg">
<mask id="mask0_2_254" style="mask-type:alpha" maskUnits="userSpaceOnUse" x="2" y="6" width="42" height="43">
<path d="M23 48.7879C34.5478 48.7879 43.9091 39.4266 43.9091 27.8788C43.9091 16.331 34.5478 6.96973 23 6.96973C11.4523 6.96973 2.09094 16.331 2.09094 27.8788C2.09094 39.4266 11.4523 48.7879 23 48.7879Z" fill="white"/>
</mask>
<g mask="url(#mask0_2_254)">
<path d="M23 48.7879C34.5478 48.7879 43.9091 39.4266 43.9091 27.8788C43.9091 16.331 34.5478 6.96973 23 6.96973C11.4523 6.96973 2.09094 16.331 2.09094 27.8788C2.09094 39.4266 11.4523 48.7879 23 48.7879Z" fill="#E6E6E6"/>
<path d="M43.9091 6.96973H2.09094V48.7879H43.9091V6.96973Z" fill="#46D8C5"/>
</g>
<mask id="mask1_2_254" style="mask-type:alpha" maskUnits="userSpaceOnUse" x="0" y="0" width="46" height="49">
<path d="M2.09091 27.8788C2.09091 39.4266 11.4522 48.7879 23 48.7879C34.5478 48.7879 43.9091 39.4266 43.9091 27.8788H46V0H0V27.8788H2.09091Z" fill="white"/>
</mask>
<g mask="url(#mask1_2_254)">
<mask id="mask2_2_254" style="mask-type:alpha" maskUnits="userSpaceOnUse" x="5" y="6" width="36" height="43">
<path d="M27.1818 31.4701V34.6743H27.8788C34.8074 34.6743 40.4242 40.2911 40.4242 47.2197V48.7879H5.57574V47.2197C5.57574 40.2911 11.1925 34.6743 18.1212 34.6743H18.8182V31.4701C15.8147 30.0433 13.6558 27.1273 13.2956 23.6763C12.2806 23.5328 11.5 22.6606 11.5 21.6061V19.1667C11.5 18.1307 12.2535 17.2706 13.2424 17.1047V16.0303C13.2424 10.6414 17.611 6.27277 23 6.27277C28.3889 6.27277 32.7576 10.6414 32.7576 16.0303V17.1047C33.7465 17.2706 34.5 18.1307 34.5 19.1667V21.6061C34.5 22.6606 33.7193 23.5328 32.7044 23.6763C32.3442 27.1273 30.1853 30.0433 27.1818 31.4701Z" fill="white"/>
</mask>
<g mask="url(#mask2_2_254)">
<path d="M27.1818 31.4701V34.6743H27.8788C34.8074 34.6743 40.4242 40.2911 40.4242 47.2197V48.7879H5.57574V47.2197C5.57574 40.2911 11.1925 34.6743 18.1212 34.6743H18.8182V31.4701C15.8147 30.0433 13.6558 27.1273 13.2956 23.6763C12.2806 23.5328 11.5 22.6606 11.5 21.6061V19.1667C11.5 18.1307 12.2535 17.2706 13.2424 17.1047V16.0303C13.2424 10.6414 17.611 6.27277 23 6.27277C28.3889 6.27277 32.7576 10.6414 32.7576 16.0303V17.1047C33.7465 17.2706 34.5 18.1307 34.5 19.1667V21.6061C34.5 22.6606 33.7193 23.5328 32.7044 23.6763C32.3442 27.1273 30.1853 30.0433 27.1818 31.4701Z" fill="#D0C6AC"/>
<path d="M51.5757 6.27277H5.57574V55.0606H51.5757V6.27277Z" fill="#EDB98A"/>
<path fill-rule="evenodd" clip-rule="evenodd" d="M32.7576 20.038V24.0455C32.7576 29.4345 28.389 33.8031 23 33.8031C17.611 33.8031 13.2424 29.4345 13.2424 24.0455V20.038V22.6516C13.2424 28.0406 17.611 32.4092 23 32.4092C28.389 32.4092 32.7576 28.0406 32.7576 22.6516V20.038Z" fill="black" fill-opacity="0.1"/>
</g>
<mask id="mask3_2_254" style="mask-type:alpha" maskUnits="userSpaceOnUse" x="5" y="31" width="36" height="18">
<path fill-rule="evenodd" clip-rule="evenodd" d="M18.8182 31.8987C15.696 32.248 13.2912 33.2022 13.2431 35.6578C8.73762 37.5611 5.57574 42.0211 5.57574 47.2196V48.7878H40.4242V47.2196C40.4242 42.0211 37.2624 37.5611 32.7568 35.6578C32.7088 33.2022 30.304 32.248 27.1818 31.8987V35.1969C27.1818 37.5065 25.3095 39.3788 23 39.3788C20.6904 39.3788 18.8182 37.5065 18.8182 35.1969V31.8987Z" fill="white"/>
</mask>
<g mask="url(#mask3_2_254)">
<path fill-rule="evenodd" clip-rule="evenodd" d="M18.8182 31.8987C15.696 32.248 13.2912 33.2022 13.2431 35.6578C8.73762 37.5611 5.57574 42.0211 5.57574 47.2196V48.7878H40.4242V47.2196C40.4242 42.0211 37.2624 37.5611 32.7568 35.6578C32.7088 33.2022 30.304 32.248 27.1818 31.8987V35.1969C27.1818 37.5065 25.3095 39.3788 23 39.3788C20.6904 39.3788 18.8182 37.5065 18.8182 35.1969V31.8987Z" fill="#B7C1DB"/>
<path d="M46.0001 29.6212H6.10352e-05V48.7879H46.0001V29.6212Z" fill="#262E33"/>
<path fill-rule="evenodd" clip-rule="evenodd" d="M17.7727 40.3787V48.7878H16.553V39.7534C16.937 39.9816 17.3453 40.1909 17.7727 40.3787ZM29.447 39.7534V46.7841C29.447 47.1209 29.1739 47.3939 28.8371 47.3939C28.5003 47.3939 28.2273 47.1209 28.2273 46.7841V40.3787C28.6547 40.1909 29.063 39.9816 29.447 39.7534Z" fill="#F4F4F4"/>
<path fill-rule="evenodd" clip-rule="evenodd" d="M15.8491 31.8383C13.2266 32.3343 11.4129 33.3225 11.4129 35.2505C11.4129 38.6852 17.1695 41.4696 23 41.4696C28.8306 41.4696 34.5871 38.6852 34.5871 35.2505C34.5871 33.3225 32.7734 32.3343 30.1509 31.8383C31.7339 32.422 32.7576 33.4033 32.7576 35.0361C32.7576 38.5892 27.91 41.4696 23 41.4696C18.0901 41.4696 13.2424 38.5892 13.2424 35.0361C13.2424 33.4033 14.2661 32.422 15.8491 31.8383Z" fill="black" fill-opacity="0.16"/>
</g>
<path fill-rule="evenodd" clip-rule="evenodd" d="M20.5605 25.962C20.5605 27.3093 21.6527 28.4014 22.9999 28.4014C24.3472 28.4014 25.4393 27.3093 25.4393 25.962" fill="black" fill-opacity="0.7"/>
<path fill-rule="evenodd" clip-rule="evenodd" d="M20.909 22.6515C20.909 23.4213 21.8451 24.0454 22.9999 24.0454C24.1547 24.0454 25.0908 23.4213 25.0908 22.6515" fill="black" fill-opacity="0.16"/>
<path d="M18.4696 20.5605C19.047 20.5605 19.5151 20.0924 19.5151 19.5151C19.5151 18.9377 19.047 18.4696 18.4696 18.4696C17.8923 18.4696 17.4242 18.9377 17.4242 19.5151C17.4242 20.0924 17.8923 20.5605 18.4696 20.5605Z" fill="black" fill-opacity="0.6"/>
<path d="M27.5302 20.5605C28.1076 20.5605 28.5757 20.0924 28.5757 19.5151C28.5757 18.9377 28.1076 18.4696 27.5302 18.4696C26.9528 18.4696 26.4847 18.9377 26.4847 19.5151C26.4847 20.0924 26.9528 20.5605 27.5302 20.5605Z" fill="black" fill-opacity="0.6"/>
<path d="M15.9659 17.2776C16.648 16.3177 18.5181 15.7795 20.129 16.1751C20.3159 16.221 20.5047 16.1067 20.5506 15.9198C20.5965 15.7329 20.4821 15.5441 20.2952 15.4982C18.4245 15.0388 16.2589 15.6621 15.3978 16.8738C15.2863 17.0307 15.3231 17.2483 15.48 17.3598C15.6368 17.4713 15.8544 17.4345 15.9659 17.2776Z" fill="black" fill-opacity="0.6"/>
<path d="M30.0341 17.2776C29.352 16.3177 27.4819 15.7795 25.871 16.1751C25.6841 16.221 25.4953 16.1067 25.4494 15.9198C25.4035 15.7329 25.5179 15.5441 25.7048 15.4982C27.5755 15.0388 29.7411 15.6621 30.6022 16.8738C30.7137 17.0307 30.6769 17.2483 30.52 17.3598C30.3632 17.4713 30.1456 17.4345 30.0341 17.2776Z" fill="black" fill-opacity="0.6"/>
<mask id="mask4_2_254" style="mask-type:alpha" maskUnits="userSpaceOnUse" x="0" y="0" width="46" height="49">
<path d="M46 0H0V48.7879H46V0Z" fill="white"/>
</mask>
<g mask="url(#mask4_2_254)">
<mask id="mask5_2_254" style="mask-type:alpha" maskUnits="userSpaceOnUse" x="12" y="1" width="22" height="17">
<path fill-rule="evenodd" clip-rule="evenodd" d="M16.2485 9.06445C16.2699 9.05497 16.2167 9.05133 16.0889 9.05355C16.2442 9.05323 16.2974 9.05686 16.2485 9.06445ZM14.831 6.32527C14.8306 6.32186 14.8339 6.3516 14.831 6.32527ZM33.5879 12.3304C33.5419 11.7524 33.4603 11.178 33.3233 10.6133C33.2145 10.1645 33.0658 9.73623 32.89 9.30803C32.7839 9.04934 32.5359 8.69401 32.5067 8.41494C32.478 8.14005 32.6925 7.83553 32.7383 7.51548C32.7827 7.20401 32.7752 6.87651 32.7113 6.56786C32.5661 5.86692 32.0851 5.21508 31.3423 5.03236C31.1764 4.99155 30.8258 5.04185 30.7087 4.94527C30.5743 4.83452 30.4807 4.45723 30.3591 4.3059C30.0123 3.87449 29.4714 3.59666 28.9009 3.69352C28.4808 3.76481 28.722 3.85168 28.4071 3.60445C28.232 3.467 28.1012 3.25714 27.9311 3.10834C27.6754 2.88482 27.3821 2.69347 27.0787 2.53643C26.2847 2.12556 25.3792 1.82691 24.4923 1.68133C22.8744 1.41576 21.1476 1.6473 19.5794 2.06805C18.7991 2.2774 18.0135 2.54309 17.2887 2.89447C16.9779 3.04513 16.7986 3.1701 16.4745 3.20955C15.9642 3.2717 15.5321 3.26859 15.0487 3.48501C13.5613 4.15096 12.8913 5.69594 13.4701 7.17443C13.5865 7.47179 13.7442 7.73291 13.9615 7.97308C14.2265 8.26593 14.3223 8.2083 14.0941 8.54505C13.7528 9.04861 13.4651 9.58558 13.2308 10.1432C12.6159 11.6071 12.513 13.2559 12.5531 14.8171C12.5671 15.3637 12.5905 15.917 12.6767 16.4583C12.7139 16.6926 12.7244 17.1331 12.9001 17.307C12.9893 17.3952 13.1163 17.4443 13.2431 17.4092C13.5409 17.3267 13.4385 17.1069 13.4454 16.9028C13.4803 15.8777 13.4332 14.9707 13.6771 13.9579C13.8571 13.2096 14.1573 12.53 14.5463 11.8609C15.0409 11.0099 15.5748 10.2625 16.255 9.53376C16.4149 9.36239 16.4499 9.28974 16.6643 9.27733C16.8267 9.26796 17.0642 9.37915 17.2221 9.41765C17.5702 9.50249 17.919 9.58637 18.2734 9.64349C18.9251 9.74854 19.5703 9.75559 20.2278 9.73499C21.5218 9.69452 22.8214 9.60375 24.076 9.27789C24.9092 9.06153 25.6479 8.67313 26.446 8.38841C26.4602 8.38333 26.6603 8.24081 26.6953 8.24662C26.7443 8.25469 27.0398 8.56475 27.0897 8.60381C27.4775 8.90794 27.9028 9.03562 28.3216 9.27112C28.838 9.56147 28.3379 9.14598 28.6227 9.50785C28.7057 9.61324 28.7482 9.80865 28.8148 9.92804C29.0267 10.3084 29.3215 10.6426 29.674 10.9079C30.0147 11.1641 30.5266 11.2879 30.7003 11.6215C30.8343 11.8788 30.8794 12.2285 30.9875 12.5033C31.2711 13.2238 31.6456 13.8957 32.0201 14.5744C32.3217 15.1213 32.6517 15.599 32.6852 16.224C32.6969 16.4416 32.4899 17.7465 32.9941 17.3496C33.0689 17.2908 33.23 16.6255 33.2632 16.5126C33.3975 16.0538 33.4453 15.5749 33.5061 15.1036C33.6271 14.1663 33.6669 13.2744 33.5879 12.3304Z" fill="white"/>
</mask>
<g mask="url(#mask5_2_254)">
<path fill-rule="evenodd" clip-rule="evenodd" d="M16.2485 9.06445C16.2699 9.05497 16.2167 9.05133 16.0889 9.05355C16.2442 9.05323 16.2974 9.05686 16.2485 9.06445ZM14.831 6.32527C14.8306 6.32186 14.8339 6.3516 14.831 6.32527ZM33.5879 12.3304C33.5419 11.7524 33.4603 11.178 33.3233 10.6133C33.2145 10.1645 33.0658 9.73623 32.89 9.30803C32.7839 9.04934 32.5359 8.69401 32.5067 8.41494C32.478 8.14005 32.6925 7.83553 32.7383 7.51548C32.7827 7.20401 32.7752 6.87651 32.7113 6.56786C32.5661 5.86692 32.0851 5.21508 31.3423 5.03236C31.1764 4.99155 30.8258 5.04185 30.7087 4.94527C30.5743 4.83452 30.4807 4.45723 30.3591 4.3059C30.0123 3.87449 29.4714 3.59666 28.9009 3.69352C28.4808 3.76481 28.722 3.85168 28.4071 3.60445C28.232 3.467 28.1012 3.25714 27.9311 3.10834C27.6754 2.88482 27.3821 2.69347 27.0787 2.53643C26.2847 2.12556 25.3792 1.82691 24.4923 1.68133C22.8744 1.41576 21.1476 1.6473 19.5794 2.06805C18.7991 2.2774 18.0135 2.54309 17.2887 2.89447C16.9779 3.04513 16.7986 3.1701 16.4745 3.20955C15.9642 3.2717 15.5321 3.26859 15.0487 3.48501C13.5613 4.15096 12.8913 5.69594 13.4701 7.17443C13.5865 7.47179 13.7442 7.73291 13.9615 7.97308C14.2265 8.26593 14.3223 8.2083 14.0941 8.54505C13.7528 9.04861 13.4651 9.58558 13.2308 10.1432C12.6159 11.6071 12.513 13.2559 12.5531 14.8171C12.5671 15.3637 12.5905 15.917 12.6767 16.4583C12.7139 16.6926 12.7244 17.1331 12.9001 17.307C12.9893 17.3952 13.1163 17.4443 13.2431 17.4092C13.5409 17.3267 13.4385 17.1069 13.4454 16.9028C13.4803 15.8777 13.4332 14.9707 13.6771 13.9579C13.8571 13.2096 14.1573 12.53 14.5463 11.8609C15.0409 11.0099 15.5748 10.2625 16.255 9.53376C16.4149 9.36239 16.4499 9.28974 16.6643 9.27733C16.8267 9.26796 17.0642 9.37915 17.2221 9.41765C17.5702 9.50249 17.919 9.58637 18.2734 9.64349C18.9251 9.74854 19.5703 9.75559 20.2278 9.73499C21.5218 9.69452 22.8214 9.60375 24.076 9.27789C24.9092 9.06153 25.6479 8.67313 26.446 8.38841C26.4602 8.38333 26.6603 8.24081 26.6953 8.24662C26.7443 8.25469 27.0398 8.56475 27.0897 8.60381C27.4775 8.90794 27.9028 9.03562 28.3216 9.27112C28.838 9.56147 28.3379 9.14598 28.6227 9.50785C28.7057 9.61324 28.7482 9.80865 28.8148 9.92804C29.0267 10.3084 29.3215 10.6426 29.674 10.9079C30.0147 11.1641 30.5266 11.2879 30.7003 11.6215C30.8343 11.8788 30.8794 12.2285 30.9875 12.5033C31.2711 13.2238 31.6456 13.8957 32.0201 14.5744C32.3217 15.1213 32.6517 15.599 32.6852 16.224C32.6969 16.4416 32.4899 17.7465 32.9941 17.3496C33.0689 17.2908 33.23 16.6255 33.2632 16.5126C33.3975 16.0538 33.4453 15.5749 33.5061 15.1036C33.6271 14.1663 33.6669 13.2744 33.5879 12.3304Z" fill="#28354B"/>
<path d="M45.8257 0H-0.174316V48.7879H45.8257V0Z" fill="#2C1B18"/>
</g>
</g>
</g>
</svg>
